PathFileType   4   (X/Y/Z)
DataRate	CameraRate	NumFrames	NumMarkers	Units	OrigDataRate	OrigDataStartFrame	OrigNumFrames
120.0	120.0	12	37	mm	120.0	16	126
Frame#	Time	midhip	hip_r	hip_l	knee_r	knee_l	ankle_r	ankle_l	midasis	asis_r	asis_l	psis_r	psis_l	epicondLat_r	epicondLat_l	epicondMed_r	epicondMed_l	malleolusLat_r	malleolusLat_l	malleolusMedv_r	malleolusMedv_l	neck	subclavicle_r	subclavicle_l	sternalnotch	xyphoidprocess	thighwand_r	thighwand_l	upperleg1_r	upperleg1_l	upperleg2_r	upperleg2_l	shankwand_r	shankwand_l	lowerleg1_r	lowerleg1_l	toe_r	toe_l
 	 	X1	Y1	Z1	X2	Y2	Z2	X3	Y3	Z3	X4	Y4	Z4	X5	Y5	Z5	X6	Y6	Z6	X7	Y7	Z7	X8	Y8	Z8	X9	Y9	Z9	X10	Y10	Z10	X11	Y11	Z11	X12	Y12	Z12	X13	Y13	Z13	X14	Y14	Z14	X15	Y15	Z15	X16	Y16	Z16	X17	Y17	Z17	X18	Y18	Z18	X19	Y19	Z19	X20	Y20	Z20	X21	Y21	Z21	X22	Y22	Z22	X23	Y23	Z23	X24	Y24	Z24	X25	Y25	Z25	X26	Y26	Z26	X27	Y27	Z27	X28	Y28	Z28	X29	Y29	Z29	X30	Y30	Z30	X31	Y31	Z31	X32	Y32	Z32	X33	Y33	Z33	X34	Y34	Z34	X35	Y35	Z35	X36	Y36	Z36	X37	Y37	Z37

	16	0.26667	72.611	748.953	-307.858	49.099	741.237	-245.146	62.937	746.136	-374.632	112.933	412.720	-223.523	107.626	427.602	-354.714	-118.312	179.310	-243.836	99.241	69.767	-347.751	125.929	812.271	-299.823	115.240	808.487	-199.802	136.618	816.055	-399.844	-33.703	851.636	-282.151	-30.205	852.236	-337.026	103.989	414.552	-169.286	110.809	424.652	-409.041	152.620	401.736	-260.539	93.456	402.559	-317.743	-131.238	189.175	-210.045	96.922	69.103	-384.673	-107.065	174.403	-265.000	100.723	67.842	-318.013	2.787	1222.757	-313.208	109.015	1162.167	-265.118	115.065	1164.448	-340.820	97.478	1162.237	-305.565	124.887	1079.754	-303.446	179.610	543.542	-101.787	236.825	563.994	-361.319	99.687	579.155	-151.175	165.745	612.725	-404.645	126.821	497.558	-158.479	161.628	525.277	-399.536	-78.041	286.674	-132.437	125.720	188.978	-460.069	-82.052	249.416	-206.789	100.522	151.828	-387.842	-100.635	85.840	-203.187	200.847	38.600	-360.160
	17	0.27500	79.639	749.629	-309.350	56.383	742.188	-245.682	69.722	746.567	-375.239	127.166	414.828	-223.886	110.412	427.763	-354.959	-98.281	177.047	-245.188	99.533	69.718	-347.725	133.018	812.984	-300.938	122.719	809.602	-200.908	143.317	816.365	-400.968	-26.380	852.381	-282.680	-23.426	852.913	-337.649	118.714	416.617	-169.569	112.785	424.608	-409.316	159.096	401.316	-259.129	102.034	402.283	-315.984	-111.608	186.663	-211.481	96.930	69.052	-384.627	-87.087	172.799	-266.629	100.736	67.818	-317.984	10.592	1223.574	-313.977	114.863	1162.538	-265.456	121.923	1165.015	-341.277	103.858	1162.827	-306.152	130.599	1080.128	-303.948	192.639	547.648	-102.625	241.498	562.217	-363.810	111.267	581.309	-151.073	170.576	612.018	-406.286	137.495	498.719	-157.922	167.624	525.078	-400.125	-60.929	285.438	-133.642	126.001	188.792	-460.279	-63.892	248.078	-207.968	100.998	151.812	-387.869	-77.379	84.916	-204.153	200.873	38.549	-360.170
	18	0.28333	86.739	750.201	-310.275	63.691	743.039	-246.173	76.508	746.899	-375.799	141.119	416.861	-224.348	113.178	427.880	-355.276	-77.869	174.235	-246.445	99.833	69.669	-347.721	140.138	813.576	-302.018	130.246	810.597	-201.973	150.029	816.555	-402.064	-19.090	853.025	-283.105	-16.427	853.508	-338.140	133.227	418.628	-169.946	114.718	424.559	-409.653	173.098	404.580	-259.565	104.177	403.095	-316.210	-91.549	183.516	-212.785	96.943	68.999	-384.601	-66.800	170.839	-268.294	100.791	67.812	-317.987	18.367	1224.239	-314.733	122.732	1163.028	-265.992	129.829	1165.587	-341.565	111.747	1163.364	-306.577	138.470	1080.657	-304.451	205.591	551.694	-103.649	246.316	560.390	-366.383	122.929	583.561	-151.172	175.356	611.455	-407.784	150.673	501.816	-158.211	170.750	524.479	-401.530	-43.546	283.552	-134.684	126.273	188.599	-460.527	-45.505	246.205	-209.089	101.384	151.796	-387.976	-53.376	83.606	-205.218	200.912	38.491	-360.228
	19	0.29167	93.843	750.662	-310.665	71.021	743.799	-246.611	83.293	747.152	-376.304	154.812	418.799	-224.892	115.892	427.952	-355.666	-57.081	170.915	-247.600	100.142	69.624	-347.754	147.281	814.066	-303.049	137.812	811.478	-202.975	156.750	816.653	-403.122	-11.861	853.602	-283.434	-9.275	854.028	-338.491	147.541	420.565	-170.404	116.620	424.510	-410.053	190.750	409.021	-260.295	104.444	404.076	-316.122	-71.051	179.774	-213.946	96.933	68.951	-384.608	-45.993	168.088	-269.539	100.917	67.760	-318.116	26.071	1224.778	-315.495	130.002	1163.378	-266.389	137.949	1165.936	-341.957	119.473	1163.735	-307.133	146.053	1080.990	-304.719	218.468	555.645	-104.852	251.164	558.556	-368.928	134.683	585.936	-151.431	179.489	610.623	-409.197	165.280	505.272	-158.703	172.505	523.395	-402.851	-25.856	281.016	-135.552	126.436	188.414	-460.850	-26.791	243.771	-210.134	101.732	151.754	-388.139	-28.687	82.002	-206.333	200.960	38.428	-360.353
	20	0.30000	100.943	751.067	-310.775	78.359	744.471	-247.004	90.091	747.348	-376.758	168.269	420.623	-225.488	118.539	427.988	-356.110	-35.926	167.127	-248.641	100.415	69.589	-347.835	154.437	814.473	-304.012	145.384	812.253	-203.891	163.490	816.693	-404.133	-4.677	854.124	-283.663	-2.095	854.484	-338.713	161.667	422.416	-170.915	118.503	424.468	-410.496	198.990	410.548	-260.793	107.074	404.137	-316.112	-50.114	175.478	-214.948	96.857	68.919	-384.657	-24.805	164.739	-270.564	101.078	67.749	-318.314	33.760	1225.224	-316.240	137.382	1163.556	-266.722	146.173	1166.317	-342.425	127.307	1164.029	-307.692	153.820	1081.264	-305.210	231.239	559.463	-106.213	255.790	556.730	-371.360	146.169	588.112	-151.458	183.352	609.572	-410.647	176.340	507.434	-159.081	175.230	522.445	-404.136	-7.829	277.835	-136.238	126.464	188.244	-461.238	-7.862	240.821	-211.064	102.044	151.713	-388.347	-3.397	80.142	-207.485	201.013	38.361	-360.542
	21	0.30833	108.010	751.397	-310.982	85.718	745.044	-247.330	96.896	747.488	-377.142	181.511	422.313	-226.118	121.101	427.982	-356.577	-14.419	162.915	-249.545	100.622	69.573	-347.958	161.599	814.806	-304.893	152.972	812.919	-204.702	170.227	816.693	-405.083	2.527	854.568	-283.784	5.000	854.865	-338.824	175.613	424.155	-171.466	120.373	424.427	-410.956	210.531	412.543	-260.966	110.138	404.076	-316.532	-28.740	170.681	-215.768	96.704	68.912	-384.744	-3.378	161.094	-271.595	101.213	67.916	-318.366	41.449	1225.570	-316.968	144.787	1163.597	-267.032	153.539	1166.678	-342.886	134.689	1164.264	-308.070	161.089	1081.453	-305.964	243.885	563.098	-107.721	260.168	554.952	-373.580	157.521	589.940	-151.528	187.556	608.528	-412.046	188.599	509.718	-159.326	178.529	521.689	-405.441	10.560	274.031	-136.739	126.381	188.091	-461.658	11.288	237.394	-211.850	102.261	151.725	-388.631	22.411	78.038	-208.683	201.067	38.292	-360.781
	22	0.31667	115.193	751.781	-311.417	93.172	745.519	-247.589	103.797	747.580	-377.454	194.567	423.836	-226.776	123.588	427.931	-357.040	7.435	158.318	-250.288	100.761	69.575	-348.110	168.843	815.073	-305.678	160.640	813.482	-205.417	177.045	816.664	-405.939	9.785	854.919	-283.803	12.035	855.209	-338.859	189.393	425.746	-172.053	122.247	424.376	-411.407	224.347	414.757	-260.935	112.898	404.253	-317.152	-6.930	165.440	-216.389	96.490	68.931	-384.857	18.331	157.148	-272.472	101.281	68.101	-318.358	49.079	1225.862	-317.678	151.895	1163.558	-267.343	160.239	1166.842	-343.280	141.573	1164.388	-308.343	167.683	1081.476	-306.638	256.390	566.505	-109.369	264.316	553.226	-375.545	168.959	591.628	-151.916	192.053	607.764	-413.183	201.656	512.154	-159.621	181.943	521.102	-406.603	29.330	269.662	-137.038	126.245	187.954	-462.080	30.751	233.487	-212.404	102.428	151.801	-388.934	48.654	75.716	-209.919	201.121	38.223	-361.054
	23	0.32500	122.365	752.124	-312.199	100.735	745.890	-247.752	110.741	747.612	-377.672	207.454	425.166	-227.466	126.027	427.838	-357.472	29.636	153.371	-250.846	100.836	69.589	-348.270	176.144	815.276	-306.381	168.416	813.946	-206.043	183.872	816.606	-406.719	17.096	855.180	-283.740	18.928	855.487	-338.838	203.005	427.151	-172.682	124.155	424.315	-411.826	237.046	417.142	-261.536	115.787	404.559	-317.653	15.315	159.811	-216.791	96.243	68.969	-384.979	40.382	152.887	-273.131	101.551	68.217	-318.432	56.663	1226.078	-318.365	161.174	1164.242	-267.849	167.223	1166.977	-343.577	149.624	1164.728	-308.310	176.063	1081.917	-306.775	268.716	569.648	-111.129	268.305	551.574	-377.232	180.223	593.309	-152.223	196.652	607.224	-414.133	214.186	514.526	-160.183	185.518	520.611	-407.553	48.484	264.817	-137.103	126.140	187.821	-462.479	50.545	229.136	-212.675	102.611	151.921	-389.211	75.274	73.205	-211.175	201.171	38.158	-361.337
	24	0.33333	129.303	752.198	-313.323	108.374	746.152	-247.791	117.637	747.567	-377.769	220.167	426.280	-228.209	128.455	427.698	-357.856	52.181	148.115	-251.189	100.868	69.605	-348.421	183.451	815.393	-307.014	176.294	814.299	-206.582	190.608	816.487	-407.446	24.457	855.339	-283.617	25.685	855.683	-338.779	216.427	428.330	-173.375	126.123	424.236	-412.196	247.706	419.256	-262.780	118.799	404.635	-318.427	37.996	153.853	-216.953	95.995	69.015	-385.094	62.781	148.286	-273.576	101.994	68.321	-318.552	64.282	1226.139	-319.050	167.147	1164.445	-267.827	175.070	1167.207	-343.841	156.599	1164.970	-308.781	182.856	1082.114	-306.636	280.809	572.477	-112.960	272.154	549.968	-378.645	191.280	594.833	-152.476	201.274	606.608	-414.936	225.804	516.555	-161.039	189.277	520.156	-408.468	68.043	259.590	-136.928	126.130	187.679	-462.834	70.630	224.429	-212.730	102.808	152.020	-389.458	102.241	70.530	-212.430	201.211	38.087	-361.608
	25	0.34167	136.046	751.981	-314.549	116.074	746.301	-247.711	124.465	747.432	-377.751	232.682	427.165	-229.040	130.850	427.507	-358.202	75.080	142.610	-251.299	100.882	69.616	-348.549	190.754	815.409	-307.586	184.266	814.534	-207.048	197.241	816.284	-408.125	31.856	855.385	-283.448	32.424	855.785	-338.684	229.619	429.256	-174.165	128.133	424.133	-412.529	257.918	421.050	-264.267	121.621	404.523	-319.535	61.127	147.643	-216.857	95.781	69.055	-385.191	85.688	143.422	-273.738	102.024	68.462	-318.654	71.940	1226.058	-319.730	175.862	1164.638	-268.287	184.384	1167.674	-344.267	165.646	1165.184	-309.345	192.593	1082.550	-307.201	292.627	574.945	-114.826	275.939	548.379	-379.790	202.154	596.111	-152.928	205.904	605.865	-415.615	237.069	518.226	-162.117	193.074	519.679	-409.392	88.041	254.071	-136.551	126.250	187.519	-463.128	91.034	219.405	-212.685	103.011	152.066	-389.670	129.534	67.739	-213.656	201.231	37.998	-361.853
	26	0.35000	142.999	751.817	-315.664	123.863	746.334	-247.544	131.322	747.200	-377.643	244.976	427.826	-229.992	133.183	427.272	-358.532	98.343	136.927	-251.161	100.941	69.620	-348.639	198.106	815.325	-308.094	192.337	814.655	-207.462	203.876	815.994	-408.726	39.290	855.309	-283.241	39.241	855.776	-338.545	242.542	429.926	-175.086	130.158	424.009	-412.850	269.871	423.146	-266.006	124.069	404.597	-320.407	84.714	141.274	-216.496	95.649	69.084	-385.255	108.997	138.336	-273.620	101.842	68.609	-318.718	79.627	1225.928	-320.361	181.776	1164.315	-268.620	190.353	1167.570	-344.653	171.583	1165.078	-309.712	197.975	1082.258	-307.859	304.152	577.076	-116.683	279.877	546.744	-380.702	212.813	597.121	-153.550	210.652	605.125	-416.149	248.844	519.726	-163.375	196.760	519.086	-410.121	108.481	248.367	-136.006	126.486	187.339	-463.359	111.874	214.083	-212.530	103.293	152.085	-389.849	157.129	64.925	-214.808	201.231	37.890	-362.072
	27	0.35833	150.247	751.755	-316.620	131.746	746.247	-247.335	138.290	746.862	-377.484	257.057	428.298	-231.089	135.480	427.004	-358.844	121.970	131.134	-250.768	101.098	69.605	-348.688	205.547	815.136	-308.540	200.484	814.660	-207.849	210.609	815.612	-409.230	46.769	855.105	-283.006	46.168	855.644	-338.362	255.177	430.364	-176.160	132.217	423.867	-413.156	284.713	425.688	-267.839	126.622	404.802	-320.622	108.749	134.834	-215.871	95.613	69.093	-385.275	132.456	133.014	-273.301	101.731	68.626	-318.755	87.322	1225.736	-320.936	189.894	1164.104	-268.789	198.711	1167.297	-344.730	179.833	1164.806	-309.883	206.374	1082.038	-307.859	315.327	578.818	-118.528	284.102	545.056	-381.428	223.406	597.734	-154.460	215.496	604.273	-416.541	261.571	521.176	-164.761	200.470	518.362	-410.527	129.341	242.592	-135.324	126.768	187.155	-463.554	133.043	208.619	-212.144	103.722	152.055	-389.955	184.992	62.221	-215.804	201.216	37.772	-362.276
